<svg xmlns="http://www.w3.org/2000/svg" width="228" height="170.535" viewBox="0 0 228 170.535">
  <g id="ic_logorosa" transform="translate(-79.828 -336.476)">
    <g id="Grupo_285" data-name="Grupo 285" style="mix-blend-mode: multiply;isolation: isolate">
      <path id="Trazado_713" data-name="Trazado 713" d="M289.123,475.781c0,5.371-41.378,9.726-92.416,9.726s-92.416-4.355-92.416-9.726,41.374-9.729,92.416-9.729S289.123,470.409,289.123,475.781Z" fill="#fff"/>
      <path id="Trazado_714" data-name="Trazado 714" d="M287.555,475.781c0,5.284-40.676,9.568-90.848,9.568s-90.848-4.284-90.848-9.568,40.672-9.571,90.848-9.571S287.555,470.5,287.555,475.781Z" fill="#fefefe"/>
      <path id="Trazado_715" data-name="Trazado 715" d="M285.987,475.781c0,5.2-39.974,9.409-89.28,9.409s-89.28-4.213-89.28-9.409,39.97-9.412,89.28-9.412S285.987,470.584,285.987,475.781Z" fill="#fefdfd"/>
      <path id="Trazado_716" data-name="Trazado 716" d="M284.419,475.781c0,5.109-39.272,9.251-87.712,9.251S109,480.89,109,475.781s39.268-9.254,87.712-9.254S284.419,470.672,284.419,475.781Z" fill="#fdfcfc"/>
      <path id="Trazado_717" data-name="Trazado 717" d="M282.851,475.781c0,5.021-38.57,9.093-86.144,9.093s-86.144-4.072-86.144-9.093,38.566-9.1,86.144-9.1S282.851,470.759,282.851,475.781Z" fill="#fdfbfc"/>
      <path id="Trazado_718" data-name="Trazado 718" d="M281.282,475.781c0,4.934-37.867,8.934-84.575,8.934s-84.576-4-84.576-8.934,37.864-8.937,84.576-8.937S281.282,470.847,281.282,475.781Z" fill="#fcfafb"/>
      <path id="Trazado_719" data-name="Trazado 719" d="M279.714,475.781c0,4.847-37.165,8.776-83.007,8.776s-83.008-3.929-83.008-8.776S150.861,467,196.707,467,279.714,470.934,279.714,475.781Z" fill="#fbf9fa"/>
      <path id="Trazado_720" data-name="Trazado 720" d="M278.146,475.781c0,4.759-36.463,8.618-81.439,8.618s-81.439-3.859-81.439-8.618,36.459-8.621,81.439-8.621S278.146,471.021,278.146,475.781Z" fill="#fbf8f9"/>
      <path id="Trazado_721" data-name="Trazado 721" d="M276.578,475.781c0,4.672-35.761,8.46-79.871,8.46s-79.871-3.788-79.871-8.46,35.758-8.462,79.871-8.462S276.578,471.109,276.578,475.781Z" fill="#faf7f8"/>
      <path id="Trazado_722" data-name="Trazado 722" d="M275.01,475.781c0,4.584-35.059,8.3-78.3,8.3s-78.3-3.717-78.3-8.3,35.056-8.3,78.3-8.3S275.01,471.2,275.01,475.781Z" fill="#faf6f7"/>
      <path id="Trazado_723" data-name="Trazado 723" d="M273.441,475.781c0,4.5-34.356,8.143-76.734,8.143s-76.735-3.646-76.735-8.143,34.354-8.146,76.735-8.146S273.441,471.284,273.441,475.781Z" fill="#f9f5f6"/>
      <path id="Trazado_724" data-name="Trazado 724" d="M271.873,475.781c0,4.41-33.654,7.985-75.166,7.985s-75.167-3.575-75.167-7.985,33.652-7.988,75.167-7.988S271.873,471.371,271.873,475.781Z" fill="#f8f4f6"/>
      <path id="Trazado_725" data-name="Trazado 725" d="M270.3,475.781c0,4.322-32.952,7.826-73.6,7.826s-73.6-3.5-73.6-7.826,32.95-7.829,73.6-7.829S270.3,471.458,270.3,475.781Z" fill="#f8f3f5"/>
      <path id="Trazado_726" data-name="Trazado 726" d="M268.737,475.781c0,4.235-32.25,7.668-72.03,7.668s-72.031-3.433-72.031-7.668,32.248-7.671,72.031-7.671S268.737,471.546,268.737,475.781Z" fill="#f7f2f4"/>
      <path id="Trazado_727" data-name="Trazado 727" d="M267.169,475.781c0,4.147-31.548,7.51-70.462,7.51s-70.463-3.363-70.463-7.51,31.546-7.513,70.463-7.513S267.169,471.633,267.169,475.781Z" fill="#f6f1f3"/>
      <path id="Trazado_728" data-name="Trazado 728" d="M265.6,475.781c0,4.06-30.846,7.351-68.894,7.351s-68.9-3.291-68.9-7.351,30.844-7.354,68.9-7.354S265.6,471.721,265.6,475.781Z" fill="#f6f0f2"/>
      <path id="Trazado_729" data-name="Trazado 729" d="M264.032,475.781c0,3.973-30.143,7.193-67.325,7.193s-67.326-3.22-67.326-7.193,30.141-7.2,67.326-7.2S264.032,471.808,264.032,475.781Z" fill="#f5eff1"/>
      <path id="Trazado_730" data-name="Trazado 730" d="M262.464,475.781c0,3.885-29.441,7.035-65.757,7.035s-65.758-3.15-65.758-7.035,29.439-7.038,65.758-7.038S262.464,471.9,262.464,475.781Z" fill="#f5eef0"/>
      <path id="Trazado_731" data-name="Trazado 731" d="M260.9,475.781c0,3.8-28.739,6.877-64.189,6.877s-64.19-3.079-64.19-6.877,28.737-6.879,64.19-6.879S260.9,471.983,260.9,475.781Z" fill="#f4edef"/>
      <path id="Trazado_732" data-name="Trazado 732" d="M259.328,475.781c0,3.71-28.037,6.718-62.621,6.718s-62.622-3.008-62.622-6.718,28.035-6.721,62.622-6.721S259.328,472.07,259.328,475.781Z" fill="#f3ecef"/>
      <path id="Trazado_733" data-name="Trazado 733" d="M257.76,475.781c0,3.623-27.336,6.56-61.053,6.56s-61.054-2.937-61.054-6.56,27.333-6.563,61.054-6.563S257.76,472.158,257.76,475.781Z" fill="#f3ebee"/>
      <path id="Trazado_734" data-name="Trazado 734" d="M256.192,475.781c0,3.536-26.634,6.4-59.485,6.4s-59.486-2.866-59.486-6.4,26.631-6.4,59.486-6.4S256.192,472.245,256.192,475.781Z" fill="#f2eaed"/>
      <path id="Trazado_735" data-name="Trazado 735" d="M254.623,475.781c0,3.448-25.931,6.243-57.916,6.243s-57.918-2.795-57.918-6.243,25.929-6.246,57.918-6.246S254.623,472.333,254.623,475.781Z" fill="#f2e9ec"/>
      <path id="Trazado_736" data-name="Trazado 736" d="M253.055,475.781c0,3.361-25.229,6.085-56.348,6.085s-56.35-2.724-56.35-6.085,25.227-6.088,56.35-6.088S253.055,472.42,253.055,475.781Z" fill="#f1e8eb"/>
      <path id="Trazado_737" data-name="Trazado 737" d="M251.487,475.781c0,3.273-24.527,5.927-54.78,5.927s-54.782-2.654-54.782-5.927,24.525-5.93,54.782-5.93S251.487,472.507,251.487,475.781Z" fill="#f0e7ea"/>
      <path id="Trazado_738" data-name="Trazado 738" d="M249.919,475.781c0,3.186-23.825,5.768-53.212,5.768s-53.214-2.582-53.214-5.768,23.823-5.771,53.214-5.771S249.919,472.6,249.919,475.781Z" fill="#f0e6e9"/>
      <path id="Trazado_739" data-name="Trazado 739" d="M248.351,475.781c0,3.1-23.123,5.61-51.644,5.61s-51.645-2.511-51.645-5.61,23.121-5.613,51.645-5.613S248.351,472.682,248.351,475.781Z" fill="#efe6e9"/>
      <path id="Trazado_740" data-name="Trazado 740" d="M246.783,475.781c0,3.011-22.421,5.452-50.076,5.452s-50.077-2.441-50.077-5.452,22.419-5.455,50.077-5.455S246.783,472.77,246.783,475.781Z" fill="#efe5e8"/>
      <path id="Trazado_741" data-name="Trazado 741" d="M245.214,475.781c0,2.924-21.718,5.293-48.507,5.293S148.2,478.7,148.2,475.781s21.717-5.3,48.509-5.3S245.214,472.857,245.214,475.781Z" fill="#eee4e7"/>
      <path id="Trazado_742" data-name="Trazado 742" d="M243.646,475.781c0,2.836-21.016,5.135-46.939,5.135s-46.941-2.3-46.941-5.135,21.015-5.138,46.941-5.138S243.646,472.945,243.646,475.781Z" fill="#ede3e6"/>
      <path id="Trazado_743" data-name="Trazado 743" d="M242.078,475.781c0,2.749-20.314,4.977-45.371,4.977s-45.373-2.228-45.373-4.977,20.313-4.98,45.373-4.98S242.078,473.032,242.078,475.781Z" fill="#ede2e5"/>
      <path id="Trazado_744" data-name="Trazado 744" d="M240.51,475.781c0,2.661-19.612,4.819-43.8,4.819s-43.805-2.158-43.805-4.819,19.611-4.821,43.805-4.821S240.51,473.119,240.51,475.781Z" fill="#ece1e4"/>
      <path id="Trazado_745" data-name="Trazado 745" d="M238.942,475.781c0,2.574-18.91,4.66-42.235,4.66s-42.237-2.086-42.237-4.66,18.909-4.663,42.237-4.663S238.942,473.207,238.942,475.781Z" fill="#ece0e3"/>
      <path id="Trazado_746" data-name="Trazado 746" d="M237.374,475.781c0,2.487-18.208,4.5-40.667,4.5s-40.669-2.015-40.669-4.5,18.207-4.505,40.669-4.505S237.374,473.294,237.374,475.781Z" fill="#ebdfe3"/>
      <path id="Trazado_747" data-name="Trazado 747" d="M235.8,475.781c0,2.4-17.5,4.344-39.1,4.344s-39.1-1.945-39.1-4.344,17.5-4.347,39.1-4.347S235.8,473.382,235.8,475.781Z" fill="#eadee2"/>
      <path id="Trazado_748" data-name="Trazado 748" d="M234.237,475.781c0,2.312-16.8,4.185-37.53,4.185s-37.533-1.873-37.533-4.185,16.8-4.188,37.533-4.188S234.237,473.469,234.237,475.781Z" fill="#eadde1"/>
      <path id="Trazado_749" data-name="Trazado 749" d="M232.669,475.781c0,2.224-16.1,4.027-35.962,4.027s-35.964-1.8-35.964-4.027,16.1-4.03,35.964-4.03S232.669,473.556,232.669,475.781Z" fill="#e9dce0"/>
      <path id="Trazado_750" data-name="Trazado 750" d="M231.1,475.781c0,2.137-15.4,3.869-34.394,3.869s-34.4-1.732-34.4-3.869,15.4-3.872,34.4-3.872S231.1,473.644,231.1,475.781Z" fill="#e9dbdf"/>
      <path id="Trazado_751" data-name="Trazado 751" d="M229.533,475.781c0,2.05-14.7,3.71-32.826,3.71s-32.828-1.66-32.828-3.71,14.7-3.713,32.828-3.713S229.533,473.731,229.533,475.781Z" fill="#e8dade"/>
      <path id="Trazado_752" data-name="Trazado 752" d="M227.964,475.781c0,1.962-13.994,3.552-31.257,3.552s-31.26-1.59-31.26-3.552,13.994-3.555,31.26-3.555S227.964,473.819,227.964,475.781Z" fill="#e7d9dd"/>
      <path id="Trazado_753" data-name="Trazado 753" d="M226.4,475.781c0,1.875-13.292,3.394-29.689,3.394s-29.692-1.519-29.692-3.394,13.292-3.4,29.692-3.4S226.4,473.906,226.4,475.781Z" fill="#e7d8dc"/>
      <path id="Trazado_754" data-name="Trazado 754" d="M224.828,475.781c0,1.787-12.59,3.236-28.121,3.236s-28.124-1.449-28.124-3.236,12.59-3.238,28.124-3.238S224.828,473.994,224.828,475.781Z" fill="#e6d7dc"/>
      <path id="Trazado_755" data-name="Trazado 755" d="M223.26,475.781c0,1.7-11.888,3.077-26.553,3.077s-26.556-1.377-26.556-3.077,11.888-3.08,26.556-3.08S223.26,474.081,223.26,475.781Z" fill="#e5d6db"/>
      <path id="Trazado_756" data-name="Trazado 756" d="M221.692,475.781c0,1.613-11.187,2.919-24.985,2.919s-24.988-1.306-24.988-2.919,11.186-2.922,24.988-2.922S221.692,474.168,221.692,475.781Z" fill="#e5d5da"/>
      <path id="Trazado_757" data-name="Trazado 757" d="M220.124,475.781c0,1.525-10.485,2.761-23.417,2.761s-23.42-1.236-23.42-2.761,10.485-2.764,23.42-2.764S220.124,474.256,220.124,475.781Z" fill="#e4d4d9"/>
      <path id="Trazado_758" data-name="Trazado 758" d="M218.555,475.781c0,1.438-9.782,2.6-21.848,2.6s-21.852-1.164-21.852-2.6,9.783-2.605,21.852-2.605S218.555,474.343,218.555,475.781Z" fill="#e4d3d8"/>
      <path id="Trazado_759" data-name="Trazado 759" d="M216.987,475.781c0,1.35-9.08,2.444-20.28,2.444s-20.283-1.094-20.283-2.444,9.08-2.447,20.283-2.447S216.987,474.431,216.987,475.781Z" fill="#e3d2d7"/>
      <path id="Trazado_760" data-name="Trazado 760" d="M215.419,475.781c0,1.263-8.378,2.286-18.712,2.286s-18.715-1.023-18.715-2.286,8.378-2.289,18.715-2.289S215.419,474.518,215.419,475.781Z" fill="#e2d1d6"/>
      <path id="Trazado_761" data-name="Trazado 761" d="M213.851,475.781c0,1.176-7.676,2.127-17.144,2.127s-17.147-.951-17.147-2.127,7.676-2.13,17.147-2.13S213.851,474.606,213.851,475.781Z" fill="#e2d0d6"/>
      <path id="Trazado_762" data-name="Trazado 762" d="M212.283,475.781c0,1.088-6.974,1.969-15.576,1.969s-15.579-.881-15.579-1.969,6.974-1.972,15.579-1.972S212.283,474.693,212.283,475.781Z" fill="#e1cfd5"/>
      <path id="Trazado_763" data-name="Trazado 763" d="M210.715,475.781c0,1-6.272,1.811-14.008,1.811s-14.011-.81-14.011-1.811,6.272-1.814,14.011-1.814S210.715,474.78,210.715,475.781Z" fill="#e1ced4"/>
      <path id="Trazado_764" data-name="Trazado 764" d="M209.146,475.781c0,.913-5.569,1.653-12.439,1.653s-12.443-.74-12.443-1.653,5.57-1.655,12.443-1.655S209.146,474.868,209.146,475.781Z" fill="#e0cdd3"/>
    </g>
    <text id="MICRODONACIONES" transform="translate(79.828 503.011)" fill="#fff" font-size="16.712" font-family="Montserrat-Black, Montserrat" letter-spacing="0.2em" font-weight="800"><tspan x="0" y="0">MICRO</tspan><tspan y="0" font-family="Montserrat-Regular, Montserrat" font-weight="400">DONACIONES</tspan></text>
    <g id="Grupo_286" data-name="Grupo 286">
      <path id="Trazado_765" data-name="Trazado 765" d="M259.2,454.137a11.783,11.783,0,0,0-.558-1.061,99.984,99.984,0,0,0-7.3-10.412q-.752-.987-1.5-1.978-.819-1.09-1.647-2.175c-.658-.865-1.314-1.73-1.952-2.584-.147-.2-.292-.407-.424-.621l.006-.06c.026-.141.055-.274.07-.344a9.775,9.775,0,0,1,.384-1.017c.694-1.463,1.506-2.926,2.289-4.34.4-.722.8-1.444,1.191-2.171,8.488-15.882,12.105-36.935,5.6-54.18a37.692,37.692,0,0,0-1.656-3.7c-16.295-32.163-63.064-42.072-93.034-24.194-13.144,7.842-24.04,20.994-27.083,36.1-3.717,18.461.044,40.365,14.336,53.636,19.668,18.277,46.389,21.857,71.885,17.288.444-.079,5.8-1.006,9.546-1.8,7.9,2.985,15.759,5.56,23.886,7.846a9.2,9.2,0,0,0,3.314.508,3.2,3.2,0,0,0,2.994-3.664A4.8,4.8,0,0,0,259.2,454.137Z" fill="#ff1494"/>
    </g>
    <path id="Trazado_766" data-name="Trazado 766" d="M245.593,469.311a3.84,3.84,0,0,1-.985-.129c-16.036-4.257-56.564-16.816-86.471-41.43-24.213-19.927-19.263-36.8-16.011-43.13,5.337-10.388,17.539-16.385,27.779-13.654,7.37,1.965,12.621,7.572,15.961,14.114q.377-.674.753-1.329c5.141-8.952,17.221-14.57,27.5-12.791,5.046.873,13.873,4.346,16.3,17.792,4.551,25.208-32.1,48.435-33.661,49.411a1.567,1.567,0,0,1-1.661-2.657c.365-.228,36.413-23.074,32.238-46.2-1.548-8.575-6.432-13.995-13.752-15.262-8.917-1.541-19.8,3.51-24.249,11.264q-.987,1.719-1.858,3.361c2.763,7.048,3.508,14.581,2.468,19.575-1.216,5.839-4.4,6.009-5.708,5.81a6.5,6.5,0,0,1-5.172-3.6c-2.433-5.039.866-13.991,4.95-21.93-2.909-6.676-7.818-12.638-14.919-14.532-8.723-2.326-19.572,3.083-24.183,12.059-2.906,5.654-7.238,20.8,15.214,39.279,29.432,24.222,69.446,36.616,85.284,40.82a.6.6,0,0,0,.677-.247.607.607,0,0,0,0-.734l-12.3-17.588a1.567,1.567,0,0,1,.342-2.149c1.1-.838,26.93-21,12.244-61.469-5.875-16.189-20.293-28.419-39.556-33.555-22.34-5.956-46.6-.881-63.314,13.243-17.13,14.476-23.033,40.9-14.036,62.831,10.3,25.1,36.118,37.953,70.841,35.271a1.567,1.567,0,0,1,.241,3.125q-4.673.36-9.141.359c-31.558,0-54.927-13.4-64.84-37.565-9.5-23.154-3.228-51.085,14.913-66.415,17.484-14.775,42.829-20.092,66.143-13.877,20.268,5.4,35.465,18.348,41.7,35.514,13.676,37.686-6.916,59.336-12.149,64.057l11.481,16.422a3.772,3.772,0,0,1-3.063,5.935Zm-60.076-76.735c-3.652,7.727-5,13.678-3.629,16.519a3.38,3.38,0,0,0,2.818,1.866c1.361.2,2.048-2.755,2.172-3.35C187.672,403.8,187.254,398.171,185.517,392.576Z" fill="#fff"/>
  </g>
</svg>
