<svg xmlns="http://www.w3.org/2000/svg" width="74.059" height="71.577" viewBox="0 0 74.059 71.577">
  <g id="ic_logorosa" transform="translate(416.007 -237.058)">
    <g id="Grupo_270" data-name="Grupo 270" transform="translate(-410.574 237.058)">
      <path id="Trazado_656" data-name="Trazado 656" d="M-343.27,300.458a6.19,6.19,0,0,0-.3-.571,54.02,54.02,0,0,0-3.931-5.611q-.4-.531-.807-1.066-.441-.587-.886-1.171c-.355-.467-.709-.933-1.053-1.393-.079-.109-.157-.22-.228-.335l0-.031c.014-.077.03-.148.038-.186a5.25,5.25,0,0,1,.207-.548c.374-.788.811-1.576,1.234-2.338.216-.389.432-.778.641-1.17,4.573-8.558,6.523-19.9,3.016-29.194a20.437,20.437,0,0,0-.892-2c-8.782-17.331-33.982-22.67-50.131-13.036-7.084,4.225-12.955,11.312-14.594,19.454-2,9.948.024,21.75,7.725,28.9,10.6,9.849,25,11.778,38.735,9.316.238-.044,3.125-.543,5.143-.969,4.257,1.609,8.492,3,12.871,4.228a4.956,4.956,0,0,0,1.786.274,1.723,1.723,0,0,0,1.614-1.974A2.6,2.6,0,0,0-343.27,300.458Z" transform="translate(411.678 -237.058)" fill="#ff1494"/>
    </g>
    <path id="Trazado_657" data-name="Trazado 657" d="M-349.5,307.72a2.09,2.09,0,0,1-.531-.069c-8.641-2.294-30.479-9.062-46.595-22.325-13.046-10.737-10.379-19.829-8.627-23.24,2.875-5.6,9.451-8.829,14.968-7.357,3.972,1.059,6.8,4.08,8.6,7.606.136-.242.271-.482.405-.717a15.093,15.093,0,0,1,14.82-6.893c2.718.471,7.475,2.342,8.783,9.587,2.452,13.584-17.3,26.1-18.138,26.625a.843.843,0,0,1-1.162-.269.844.844,0,0,1,.267-1.163c.2-.123,19.622-12.433,17.371-24.893-.833-4.62-3.465-7.54-7.41-8.223a13.494,13.494,0,0,0-13.067,6.07q-.531.926-1,1.811a20.076,20.076,0,0,1,1.33,10.548c-.655,3.146-2.37,3.238-3.076,3.131a3.506,3.506,0,0,1-2.786-1.942c-1.312-2.716.467-7.539,2.667-11.817-1.568-3.6-4.213-6.81-8.039-7.83-4.7-1.254-10.546,1.66-13.031,6.5-1.565,3.046-3.9,11.208,8.2,21.166,15.859,13.051,37.421,19.73,45.954,22a.32.32,0,0,0,.365-.133.327.327,0,0,0,0-.4l-6.626-9.477a.844.844,0,0,1,.183-1.158c.6-.451,14.511-11.317,6.6-33.121-3.165-8.724-10.934-15.314-21.315-18.082-12.037-3.209-25.11-.474-34.115,7.136-9.231,7.8-12.413,22.039-7.564,33.855,5.549,13.523,19.462,20.451,38.173,19.006a.845.845,0,0,1,.906.777.844.844,0,0,1-.777.907q-2.517.194-4.925.193c-17,0-29.6-7.223-34.939-20.242-5.119-12.477-1.74-27.527,8.035-35.787,9.422-7.962,23.078-10.826,35.642-7.478,10.922,2.912,19.11,9.886,22.467,19.137,7.37,20.307-3.726,31.972-6.546,34.516l6.186,8.85a2.014,2.014,0,0,1,0,2.331A2.009,2.009,0,0,1-349.5,307.72Zm-32.372-41.348c-1.968,4.163-2.695,7.37-1.955,8.9a1.821,1.821,0,0,0,1.519,1.005c.733.11,1.1-1.483,1.171-1.8A17.412,17.412,0,0,0-381.873,266.372Z" transform="translate(0 0.915)" fill="#fff"/>
  </g>
</svg>
