<svg xmlns="http://www.w3.org/2000/svg" width="97.944" height="94.664" viewBox="0 0 97.944 94.664">
  <g id="ic_logovioleta" transform="translate(-142.608 -249.138)">
    <g id="Grupo_28" data-name="Grupo 28" transform="translate(-2276.961 -55.75)">
      <path id="Trazado_171" data-name="Trazado 171" d="M2517.226,388.738a8.216,8.216,0,0,0-.4-.756,71.139,71.139,0,0,0-5.2-7.42q-.535-.7-1.066-1.41-.583-.777-1.174-1.55c-.468-.616-.937-1.233-1.391-1.842-.1-.144-.208-.29-.3-.442l0-.042c.018-.1.039-.2.05-.246a7.084,7.084,0,0,1,.274-.725c.494-1.042,1.073-2.084,1.631-3.093.286-.514.571-1.028.848-1.547,6.05-11.318,8.627-26.321,3.989-38.61a27.078,27.078,0,0,0-1.18-2.639c-11.613-22.921-44.942-29.982-66.3-17.242-9.368,5.588-17.132,14.961-19.3,25.729-2.649,13.157.032,28.766,10.217,38.223,14.016,13.025,33.058,15.577,51.228,12.321.316-.057,4.133-.718,6.8-1.281,5.63,2.128,11.231,3.963,17.022,5.592a6.555,6.555,0,0,0,2.361.362,2.277,2.277,0,0,0,2.134-2.611A3.4,3.4,0,0,0,2517.226,388.738Z" fill="#6f8bf4"/>
    </g>
    <path id="Trazado_172" data-name="Trazado 172" d="M2507.526,399.552a2.7,2.7,0,0,1-.7-.093c-11.428-3.033-40.309-11.983-61.623-29.524-17.255-14.2-13.727-26.226-11.409-30.737,3.8-7.4,12.5-11.676,19.8-9.73,5.252,1.4,8.994,5.4,11.374,10.059q.269-.482.537-.948c3.664-6.379,12.273-10.383,19.6-9.115,3.6.622,9.887,3.1,11.617,12.679,3.244,17.965-22.875,34.517-23.988,35.213a1.117,1.117,0,0,1-1.184-1.894c.26-.162,25.95-16.444,22.975-32.922-1.1-6.111-4.584-9.973-9.8-10.876-6.355-1.1-14.107,2.5-17.281,8.027q-.7,1.225-1.324,2.395c1.969,5.023,2.5,10.392,1.759,13.95-.866,4.161-3.133,4.282-4.068,4.141a4.64,4.64,0,0,1-3.686-2.567c-1.734-3.591.618-9.971,3.528-15.628-2.073-4.758-5.572-9.007-10.632-10.356-6.217-1.658-13.948,2.2-17.234,8.593-2.07,4.029-5.158,14.823,10.842,27.992,20.975,17.262,49.491,26.094,60.777,29.09a.425.425,0,0,0,.483-.176.433.433,0,0,0,0-.523l-8.762-12.534a1.117,1.117,0,0,1,.243-1.532c.787-.6,19.191-14.966,8.726-43.805-4.187-11.537-14.462-20.253-28.19-23.913-15.92-4.244-33.208-.628-45.12,9.438-12.208,10.316-16.414,29.147-10,44.776,7.337,17.885,25.739,27.047,50.484,25.136a1.116,1.116,0,1,1,.172,2.226q-3.33.258-6.514.257c-22.49,0-39.144-9.553-46.208-26.771-6.77-16.5-2.3-36.406,10.627-47.33,12.46-10.529,30.522-14.319,47.137-9.889,14.443,3.85,25.273,13.075,29.713,25.308,9.746,26.857-4.929,42.285-8.657,45.65l8.181,11.7a2.688,2.688,0,0,1-2.183,4.23Zm-42.812-54.685c-2.6,5.507-3.564,9.747-2.587,11.772a2.412,2.412,0,0,0,2.009,1.33c.969.146,1.459-1.963,1.548-2.388A23.057,23.057,0,0,0,2464.714,344.867Z" transform="translate(-2276.961 -55.75)" fill="#fff"/>
  </g>
</svg>
