<svg xmlns="http://www.w3.org/2000/svg" width="37.002" height="37.002" viewBox="0 0 37.002 37.002">
  <g id="ic_notificaciones" transform="translate(-47.624 -473.022)">
    <circle id="Elipse_106" data-name="Elipse 106" cx="18.501" cy="18.501" r="18.501" transform="translate(47.624 473.022)" fill="#4c51c6"/>
    <g id="Grupo_305" data-name="Grupo 305">
      <path id="Trazado_777" data-name="Trazado 777" d="M66.144,499.007q-3.54,0-7.081,0c-1.334,0-1.9-.966-1.19-2.106a8.851,8.851,0,0,0,1.381-5.21,11.612,11.612,0,0,1,.131-2.728,6.764,6.764,0,0,1,4.591-5.3.871.871,0,0,0,.693-.754,1.509,1.509,0,0,1,2.952.048.756.756,0,0,0,.621.682,6.974,6.974,0,0,1,4.793,6.564q.013,1.058,0,2.114a7.409,7.409,0,0,0,1.036,3.98c.146.245.288.493.424.744A1.249,1.249,0,0,1,73.341,499C70.942,499.014,68.543,499.006,66.144,499.007Z" fill="#fff"/>
      <path id="Trazado_778" data-name="Trazado 778" d="M56.513,488.587a7.829,7.829,0,0,1,3.3-6.011,12.948,12.948,0,0,1,2.076-1.05c.331-.151.716-.159.852.276s-.181.6-.541.711a6.674,6.674,0,0,0-4.611,5.823c0,.038,0,.076-.005.114-.024.352-.135.717-.54.638C56.813,489.042,56.637,488.711,56.513,488.587Z" fill="#fff"/>
      <path id="Trazado_779" data-name="Trazado 779" d="M75.737,488.33c-.006.391-.06.764-.51.776s-.515-.354-.541-.72a6.654,6.654,0,0,0-4.6-5.867c-.343-.111-.695-.246-.559-.7.143-.475.533-.418.894-.291a7.671,7.671,0,0,1,5.229,6.147C75.694,487.9,75.711,488.13,75.737,488.33Z" fill="#fff"/>
      <path id="Trazado_780" data-name="Trazado 780" d="M66.152,499.646c.512,0,1.025-.015,1.537,0,.565.02.7.234.453.718a2.232,2.232,0,0,1-4.016-.023c-.23-.456-.1-.671.432-.693S65.621,499.646,66.152,499.646Z" fill="#fff"/>
    </g>
  </g>
</svg>
